<svg width="526" height="526" xmlns="http://www.w3.org/2000/svg" xmlns:xlink="http://www.w3.org/1999/xlink" overflow="hidden"><defs><clipPath id="clip0"><path d="M0 0 526 0 526 526 0 526Z" fill-rule="evenodd" clip-rule="evenodd"/></clipPath><clipPath id="clip1"><path d="M310 271 329 271 329 291 310 291Z" fill-rule="evenodd" clip-rule="evenodd"/></clipPath><clipPath id="clip2"><path d="M310 271 329 271 329 291 310 291Z" fill-rule="evenodd" clip-rule="evenodd"/></clipPath><clipPath id="clip3"><path d="M310 271 329 271 329 291 310 291Z" fill-rule="evenodd" clip-rule="evenodd"/></clipPath><clipPath id="clip4"><path d="M333 301 348 301 348 315 333 315Z" fill-rule="evenodd" clip-rule="evenodd"/></clipPath><clipPath id="clip5"><path d="M333 301 348 301 348 315 333 315Z" fill-rule="evenodd" clip-rule="evenodd"/></clipPath><clipPath id="clip6"><path d="M333 301 348 301 348 315 333 315Z" fill-rule="evenodd" clip-rule="evenodd"/></clipPath><clipPath id="clip7"><path d="M281 300 296 300 296 315 281 315Z" fill-rule="evenodd" clip-rule="evenodd"/></clipPath><clipPath id="clip8"><path d="M281 300 296 300 296 315 281 315Z" fill-rule="evenodd" clip-rule="evenodd"/></clipPath><clipPath id="clip9"><path d="M281 300 296 300 296 315 281 315Z" fill-rule="evenodd" clip-rule="evenodd"/></clipPath><clipPath id="clip10"><path d="M234.124 238.898 275.938 185.334 304.271 207.451 262.458 261.016Z" fill-rule="evenodd" clip-rule="evenodd"/></clipPath><clipPath id="clip11"><path d="M234.124 238.898 275.938 185.334 304.271 207.451 262.458 261.016Z" fill-rule="evenodd" clip-rule="evenodd"/></clipPath><clipPath id="clip12"><path d="M234.124 238.898 275.938 185.334 304.271 207.451 262.458 261.016Z" fill-rule="evenodd" clip-rule="evenodd"/></clipPath><clipPath id="clip13"><path d="M253.282 226.04 266.799 209.499 283.34 223.015 269.823 239.556Z" fill-rule="evenodd" clip-rule="evenodd"/></clipPath><clipPath id="clip14"><path d="M253.282 226.04 266.799 209.499 283.34 223.015 269.823 239.556Z" fill-rule="evenodd" clip-rule="evenodd"/></clipPath><clipPath id="clip15"><path d="M253.282 226.04 266.799 209.499 283.34 223.015 269.823 239.556Z" fill-rule="evenodd" clip-rule="evenodd"/></clipPath><clipPath id="clip16"><path d="M268.136 249.614 320.464 206.264 343.395 233.943 291.066 277.294Z" fill-rule="evenodd" clip-rule="evenodd"/></clipPath><clipPath id="clip17"><path d="M268.136 249.614 320.464 206.264 343.395 233.943 291.066 277.294Z" fill-rule="evenodd" clip-rule="evenodd"/></clipPath><clipPath id="clip18"><path d="M268.136 249.614 320.464 206.264 343.395 233.943 291.066 277.294Z" fill-rule="evenodd" clip-rule="evenodd"/></clipPath><clipPath id="clip19"><path d="M289.606 241.164 306.355 227.907 319.612 244.656 302.863 257.913Z" fill-rule="evenodd" clip-rule="evenodd"/></clipPath><clipPath id="clip20"><path d="M289.606 241.164 306.355 227.907 319.612 244.656 302.863 257.913Z" fill-rule="evenodd" clip-rule="evenodd"/></clipPath><clipPath id="clip21"><path d="M289.606 241.164 306.355 227.907 319.612 244.656 302.863 257.913Z" fill-rule="evenodd" clip-rule="evenodd"/></clipPath><clipPath id="clip22"><path d="M317 330 336 330 336 350 317 350Z" fill-rule="evenodd" clip-rule="evenodd"/></clipPath><clipPath id="clip23"><path d="M317 330 336 330 336 350 317 350Z" fill-rule="evenodd" clip-rule="evenodd"/></clipPath><clipPath id="clip24"><path d="M317 330 336 330 336 350 317 350Z" fill-rule="evenodd" clip-rule="evenodd"/></clipPath><clipPath id="clip25"><path d="M112 133 142 133 142 163 112 163Z" fill-rule="evenodd" clip-rule="evenodd"/></clipPath><clipPath id="clip26"><path d="M112 133 142 133 142 163 112 163Z" fill-rule="evenodd" clip-rule="evenodd"/></clipPath><clipPath id="clip27"><path d="M112 133 142 133 142 163 112 163Z" fill-rule="evenodd" clip-rule="evenodd"/></clipPath><clipPath id="clip28"><path d="M432.88 256.034 484.452 262.16 478.203 314.768 426.631 308.643Z" fill-rule="evenodd" clip-rule="evenodd"/></clipPath><clipPath id="clip29"><path d="M432.88 256.034 484.452 262.16 478.203 314.768 426.631 308.643Z" fill-rule="evenodd" clip-rule="evenodd"/></clipPath><clipPath id="clip30"><path d="M432.88 256.034 484.452 262.16 478.203 314.768 426.631 308.643Z" fill-rule="evenodd" clip-rule="evenodd"/></clipPath><clipPath id="clip31"><path d="M423.528 259.644 468.505 285.611 442.016 331.492 397.039 305.525Z" fill-rule="evenodd" clip-rule="evenodd"/></clipPath><clipPath id="clip32"><path d="M423.528 259.644 468.505 285.611 442.016 331.492 397.039 305.525Z" fill-rule="evenodd" clip-rule="evenodd"/></clipPath><clipPath id="clip33"><path d="M423.528 259.644 468.505 285.611 442.016 331.492 397.039 305.525Z" fill-rule="evenodd" clip-rule="evenodd"/></clipPath></defs><g clip-path="url(#clip0)"><rect x="0" y="0" width="526" height="526" fill="#FFFFFF"/><rect x="0" y="0" width="526" height="526" fill="#F2F2F2"/><path d="M0 156.527 0 137.054 7.18054 137.054 14.3105 137.054 14.3105 109.675 14.3105 82.243 36.6612 82.243 59.0119 82.243 59.0119 109.675 59.0119 137.054 67.8611 137.054 76.7104 137.054 76.7104 130.05 76.7104 122.993 84.4977 122.728 92.2851 122.462 92.4873 97.0467 92.7402 71.631 96.5327 71.631 100.275 71.631 100.275 97.259 100.275 122.94 107.051 122.94 113.776 122.94 113.776 118.483 113.776 114.079 125.154 114.079 136.531 114.079 136.531 99.4875 136.531 84.896 143.712 84.896 150.842 84.896 150.842 61.921 150.842 38.893 154.634 38.893 158.427 38.893 158.427 61.921 158.427 84.896 170.26 84.896 182.042 84.896 182.042 99.4875 182.042 114.079 204.797 114.079 227.552 114.079 227.552 125.593 227.552 137.054 236.806 137.054 246.11 137.054 246.11 102.14 246.11 67.227 293.29 67.227 340.469 67.227 340.469 99.063 340.469 130.899 343.857 130.899 347.245 130.899 347.245 84.5246 347.245 38.1501 349.975 37.8848 352.706 37.5665 352.959 25.4157 353.161 13.265 357.763 13.265 362.415 13.265 362.415 6.6325 362.415 0 374.197 0 385.979 0 385.979 6.6325 385.979 13.265 391.036 13.265 396.093 13.265 396.093 25.628 396.093 38.044 398.621 38.044 401.149 38.044 401.149 82.243 401.149 126.442 406.661 126.442 412.122 126.442 412.122 118.058 412.122 109.675 422.64 109.675 433.209 109.675 433.209 118.058 433.209 126.442 437.406 126.442 441.603 126.442 441.603 112.328 441.603 98.161 448.784 98.161 455.964 98.161 455.964 112.328 455.964 126.442 460.566 126.442 465.218 126.442 465.218 145.915 465.218 165.388 471.134 165.388 477 165.388 477 170.694 477 176 238.525 176 0 176 0 156.527ZM364.943 95.9325 364.943 60.117 360.291 60.117 355.639 60.117 355.639 95.9325 355.639 131.748 360.291 131.748 364.943 131.748 364.943 95.9325ZM378.394 95.9325 378.394 60.117 374.197 60.117 370 60.117 370 95.9325 370 131.748 374.197 131.748 378.394 131.748 378.394 95.9325ZM392.755 95.9325 392.755 60.117 388.507 60.117 384.31 60.117 384.31 95.9325 384.31 131.748 388.507 131.748 392.755 131.748 392.755 95.9325ZM274.731 117.156 274.731 110.524 268.41 110.524 262.09 110.524 262.09 117.156 262.09 123.789 268.41 123.789 274.731 123.789 274.731 117.156ZM300.015 117.156 300.015 110.524 293.694 110.524 287.373 110.524 287.373 117.156 287.373 123.789 293.694 123.789 300.015 123.789 300.015 117.156ZM325.299 117.156 325.299 110.524 318.978 110.524 312.657 110.524 312.657 117.156 312.657 123.789 318.978 123.789 325.299 123.789 325.299 117.156ZM274.731 91.5285 274.731 84.896 268.41 84.896 262.09 84.896 262.09 91.5285 262.09 98.161 268.41 98.161 274.731 98.161 274.731 91.5285ZM300.015 91.5285 300.015 84.896 293.694 84.896 287.373 84.896 287.373 91.5285 287.373 98.161 293.694 98.161 300.015 98.161 300.015 91.5285ZM325.299 91.5285 325.299 84.896 318.978 84.896 312.657 84.896 312.657 91.5285 312.657 98.161 318.978 98.161 325.299 98.161 325.299 91.5285ZM254.505 51.7335 254.505 45.101 279.384 45.101 304.263 45.101 304.263 51.7335 304.263 58.366 279.384 58.366 254.505 58.366 254.505 51.7335ZM311.848 42.0235 311.848 25.628 322.366 25.628 332.884 25.628 332.884 42.0235 332.884 58.366 322.366 58.366 311.848 58.366 311.848 42.0235Z" fill="#D0D0D0" fill-rule="evenodd" transform="matrix(-1 -8.74228e-08 -8.74228e-08 1 502 328)"/><path d="M464.598 41 473.42 41 473.994 41 473.564 41.5738 464.885 51.9016 464.311 51.7582 464.311 41.2869 464.311 41 464.598 41ZM462.375 76 473.277 76 473.277 66.1742 477.723 66.1742 477.723 76 488.625 76 488.625 61.2254 493 61.2254 475.5 41.7172 458 61.2254 462.375 61.2254 462.375 76Z" fill="#D0D0D0" fill-rule="evenodd"/><path d="M132.033 49 140.098 49 140.623 49 140.23 49.5246 132.295 58.9672 131.77 58.8361 131.77 49.2623 131.77 49 132.033 49ZM130 81 139.967 81 139.967 72.0164 144.033 72.0164 144.033 81 154 81 154 67.4918 158 67.4918 142 49.6557 126 67.4918 130 67.4918 130 81Z" fill="#D0D0D0" fill-rule="evenodd"/><path d="M162.948 400.483C78.1343 342.862 55.9644 227.211 113.431 142.168 170.897 57.1256 286.238 34.896 371.052 92.517 455.866 150.138 478.036 265.79 420.569 350.832 401.571 378.947 375.259 401.31 344.486 415.496" stroke="#7C7C7B" stroke-miterlimit="8" fill="none" fill-rule="evenodd"/><path d="M303 281C303 271.611 310.611 264 320 264 329.389 264 337 271.611 337 281 337 290.389 329.389 298 320 298 310.611 298 303 290.389 303 281Z" fill="#D7B169" fill-rule="evenodd"/><g clip-path="url(#clip1)"><g clip-path="url(#clip2)"><g clip-path="url(#clip3)"><path d="M15.4373 4.30461C15.3565 4.22365 15.253 4.18323 15.1271 4.18323L12.8197 4.18323C12.6667 3.4368 12.3788 2.78885 11.956 2.24012L15.1 2.24012C15.2262 2.24012 15.3294 2.19966 15.4105 2.11889 15.4911 2.03797 15.5315 1.93442 15.5315 1.80851L15.5315 0.431803C15.5315 0.305798 15.4911 0.202431 15.4105 0.121421 15.3293 0.0405997 15.2261 0 15.0999 0L3.87285 0C3.74685 0 3.64348 0.0405997 3.56247 0.121374 3.4817 0.202384 3.4411 0.30575 3.4411 0.431756L3.4411 2.22646C3.4411 2.34339 3.48382 2.44458 3.56928 2.53004 3.65473 2.61549 3.75592 2.65822 3.87285 2.65822L5.82953 2.65822C7.7276 2.65822 8.93312 3.16635 9.44584 4.183L3.87285 4.183C3.74685 4.183 3.64334 4.22341 3.56247 4.30437 3.4817 4.38543 3.4411 4.48875 3.4411 4.61475L3.4411 5.99127C3.4411 6.11718 3.48151 6.22069 3.56247 6.30146 3.64348 6.38252 3.74704 6.42284 3.87285 6.42284L9.63503 6.42284C9.43709 7.16072 8.97598 7.72288 8.25171 8.10973 7.52739 8.49663 6.57176 8.69009 5.38421 8.69009L3.87285 8.69009C3.75592 8.69009 3.65473 8.73286 3.56928 8.81826 3.48378 8.90377 3.4411 9.005 3.4411 9.12184L3.4411 10.8358C3.4411 10.9529 3.48151 11.0518 3.56247 11.1327 5.28964 12.9678 7.52976 15.536 10.2825 18.8379 10.3636 18.9459 10.476 18.9998 10.62 18.9998L13.2512 18.9998C13.4403 18.9998 13.5709 18.9191 13.6426 18.7568 13.7326 18.5949 13.7149 18.442 13.5886 18.298 10.9621 15.0773 8.89729 12.6664 7.39491 11.0651 8.92428 10.8852 10.1658 10.3903 11.1194 9.58082 12.0729 8.77124 12.6531 7.71848 12.8601 6.42307L15.1271 6.42307C15.253 6.42307 15.3565 6.38271 15.4373 6.3017 15.5184 6.22092 15.559 6.11742 15.559 5.9915L15.559 4.61513C15.559 4.48899 15.5184 4.38562 15.4373 4.30461Z" fill="#FFFFFF" transform="matrix(1 0 -0 1.05263 310 271)"/></g></g></g><path d="M328 308C328 300.82 333.82 295 341 295 348.18 295 354 300.82 354 308 354 315.18 348.18 321 341 321 333.82 321 328 315.18 328 308Z" fill="#D7B169" fill-rule="evenodd"/><g clip-path="url(#clip4)"><g clip-path="url(#clip5)"><g clip-path="url(#clip6)"><path d="M11.3749 3.17182C11.3153 3.11216 11.239 3.08238 11.1463 3.08238L9.44611 3.08238C9.33334 2.53238 9.12122 2.05495 8.8097 1.65062L11.1263 1.65062C11.2193 1.65062 11.2953 1.6208 11.3551 1.56129 11.4145 1.50166 11.4443 1.42536 11.4443 1.33258L11.4443 0.318171C11.4443 0.225324 11.4145 0.14916 11.3551 0.0894681 11.2953 0.0299156 11.2192 0 11.1263 0L2.85368 0C2.76083 0 2.68467 0.0299156 2.62498 0.0894333 2.56546 0.149125 2.53554 0.22529 2.53554 0.318136L2.53554 1.64055C2.53554 1.72671 2.56703 1.80127 2.62999 1.86424 2.69296 1.9272 2.76752 1.95869 2.85368 1.95869L4.29544 1.95869C5.69402 1.95869 6.5823 2.3331 6.96009 3.08221L2.85368 3.08221C2.76083 3.08221 2.68457 3.11199 2.62498 3.17164 2.56546 3.23137 2.53554 3.3075 2.53554 3.40035L2.53554 4.41462C2.53554 4.5074 2.56532 4.58366 2.62498 4.64318 2.68467 4.70291 2.76097 4.73262 2.85368 4.73262L7.0995 4.73262C6.95365 5.27632 6.61388 5.69054 6.08021 5.97559 5.5465 6.26068 4.84235 6.40322 3.96731 6.40322L2.85368 6.40322C2.76752 6.40322 2.69296 6.43474 2.62999 6.49767 2.56699 6.56067 2.53554 6.63527 2.53554 6.72136L2.53554 7.98425C2.53554 8.07055 2.56532 8.14344 2.62498 8.20303 3.89763 9.55526 5.54824 11.4476 7.57661 13.8805 7.63634 13.9602 7.71916 13.9999 7.82524 13.9999L9.76407 13.9999C9.90341 13.9999 9.9996 13.9404 10.0525 13.8208 10.1187 13.7015 10.1058 13.5888 10.0127 13.4827 8.07731 11.1096 6.5559 9.3331 5.44888 8.15323 6.57578 8.02068 7.49056 7.65602 8.19324 7.05955 8.89583 6.46302 9.32331 5.6873 9.47589 4.73279L11.1463 4.73279C11.239 4.73279 11.3153 4.70305 11.3749 4.64336 11.4346 4.58384 11.4645 4.50757 11.4645 4.41479L11.4645 3.40062C11.4645 3.30767 11.4346 3.23151 11.3749 3.17182Z" fill="#FFFFFF" transform="matrix(1.07143 0 -0 1 333 301)"/></g></g></g><path d="M276 307C276 299.82 281.82 294 289 294 296.18 294 302 299.82 302 307 302 314.18 296.18 320 289 320 281.82 320 276 314.18 276 307Z" fill="#D7B169" fill-rule="evenodd"/><g clip-path="url(#clip7)"><g clip-path="url(#clip8)"><g clip-path="url(#clip9)"><path d="M293.187 303.398C293.124 303.334 293.042 303.303 292.942 303.303L291.121 303.303C291 302.713 290.773 302.202 290.439 301.769L292.921 301.769C293.021 301.769 293.102 301.737 293.166 301.673 293.23 301.609 293.262 301.527 293.262 301.428L293.262 300.341C293.262 300.241 293.23 300.16 293.166 300.096 293.102 300.032 293.021 300 292.921 300L284.058 300C283.958 300 283.876 300.032 283.812 300.096 283.749 300.16 283.717 300.241 283.717 300.341L283.717 301.758C283.717 301.85 283.75 301.93 283.818 301.997 283.885 302.065 283.965 302.099 284.058 302.099L285.602 302.099C287.101 302.099 288.052 302.5 288.457 303.302L284.058 303.302C283.958 303.302 283.876 303.334 283.812 303.398 283.749 303.462 283.717 303.544 283.717 303.643L283.717 304.73C283.717 304.829 283.749 304.911 283.812 304.975 283.876 305.039 283.958 305.071 284.058 305.071L288.607 305.071C288.45 305.653 288.086 306.097 287.514 306.402 286.943 306.708 286.188 306.861 285.251 306.861L284.058 306.861C283.965 306.861 283.885 306.894 283.818 306.962 283.75 307.029 283.717 307.109 283.717 307.201L283.717 308.555C283.717 308.647 283.749 308.725 283.812 308.789 285.176 310.238 286.945 312.265 289.118 314.872 289.182 314.957 289.271 315 289.384 315L291.462 315C291.611 315 291.714 314.936 291.771 314.808 291.842 314.68 291.828 314.559 291.728 314.446 289.654 311.903 288.024 310 286.838 308.736 288.045 308.594 289.026 308.203 289.778 307.564 290.531 306.925 290.989 306.094 291.153 305.071L292.942 305.071C293.042 305.071 293.124 305.039 293.187 304.975 293.251 304.911 293.283 304.83 293.283 304.73L293.283 303.644C293.283 303.544 293.251 303.462 293.187 303.398Z" fill="#FFFFFF"/></g></g></g><g clip-path="url(#clip10)"><g clip-path="url(#clip11)"><g clip-path="url(#clip12)"><path d="M0 17.9454 0 0 33.985 0 67.9702 0 67.9702 17.9454 67.9702 35.8908 33.985 35.8908 0 35.8908ZM58.9046 32.1587C59.3382 29.1519 61.674 27.0214 64.5558 27.0044L65.7468 26.9975 65.7468 17.9454 65.7468 8.89326 64.5558 8.88627C61.674 8.86942 59.3382 6.73884 58.9046 3.73197L58.6871 2.22328 34.0145 2.22328 9.34204 2.22328 8.97359 3.97986C8.77095 4.94596 8.29106 6.17751 7.9072 6.71662 7.06521 7.89908 5.04069 8.87675 3.41439 8.88627L2.22332 8.89326 2.22332 17.9454 2.22332 26.9975 3.41439 27.0044C5.04069 27.014 7.06521 27.9917 7.9072 29.1741 8.29106 29.7132 8.77095 30.9448 8.97359 31.9109L9.34204 33.6674 34.0145 33.6674 58.6871 33.6674ZM10.8109 30.218C10.2063 27.9724 7.89661 25.8868 4.99626 24.9675 4.47787 24.8032 4.44086 24.2555 4.51983 17.9173L4.60545 11.0454 6.26185 10.4277C8.23254 9.69282 10.3144 7.51673 10.8109 5.67272L11.1411 4.44665 33.947 4.44665 56.7529 4.44665 57.1199 5.67128C57.8035 7.95298 60.0991 10.0138 62.9677 10.9209 63.4744 11.0811 63.5235 11.7015 63.5235 17.9454 63.5235 24.1893 63.4744 24.8096 62.9677 24.9698 60.0716 25.8857 57.8189 27.8861 57.143 30.1427L56.7529 31.4442 33.947 31.4442 11.1411 31.4442ZM12.3982 19.8453C13.4784 19.2868 13.892 18.0775 13.3841 16.9627 12.4328 14.8747 9.21091 15.6333 9.21091 17.9454 9.21091 19.094 9.98326 19.9369 11.3706 20.3025 11.4229 20.3163 11.8854 20.1106 12.3982 19.8453ZM58.2188 19.4328C59.0686 18.6859 58.8219 16.9028 57.7599 16.1132 56.1065 14.8842 53.7948 16.663 54.4872 18.6316 55.0557 20.2483 56.852 20.634 58.2188 19.4328Z" fill="#D7B169" transform="matrix(0.615331 -0.788269 0.788269 0.615331 234.124 238.898)"/></g></g></g><g clip-path="url(#clip13)"><g clip-path="url(#clip14)"><g clip-path="url(#clip15)"><path d="M17.3556 4.8395C17.2647 4.74848 17.1483 4.70304 17.0069 4.70304L14.4127 4.70304C14.2406 3.86385 13.917 3.1354 13.4417 2.51848L16.9763 2.51848C17.1182 2.51848 17.2342 2.47299 17.3255 2.38218 17.416 2.29121 17.4615 2.17479 17.4615 2.03323L17.4615 0.485459C17.4615 0.343796 17.4161 0.227586 17.3255 0.136509 17.2341 0.0456446 17.1181 0 16.9762 0L4.35409 0C4.21243 0 4.09622 0.0456446 4.00514 0.136456 3.91433 0.227532 3.86869 0.343743 3.86869 0.485406L3.86869 2.50312C3.86869 2.63458 3.91672 2.74835 4.0128 2.84442 4.10887 2.94049 4.22263 2.98853 4.35409 2.98853L6.55391 2.98853C8.68784 2.98853 10.0431 3.5598 10.6196 4.70278L4.35409 4.70278C4.21243 4.70278 4.09606 4.74821 4.00514 4.83923 3.91433 4.93036 3.86869 5.04652 3.86869 5.18818L3.86869 6.73574C3.86869 6.8773 3.91412 6.99367 4.00514 7.08448 4.09622 7.17561 4.21264 7.22094 4.35409 7.22094L10.8323 7.22094C10.6097 8.05051 10.0913 8.68252 9.27707 9.11745 8.46275 9.55243 7.38837 9.76992 6.05325 9.76992L4.35409 9.76992C4.22263 9.76992 4.10887 9.81801 4.0128 9.91402 3.91667 10.0101 3.86869 10.124 3.86869 10.2553L3.86869 12.1822C3.86869 12.3139 3.91412 12.4251 4.00514 12.516 5.94693 14.5792 8.46541 17.4665 11.5603 21.1787 11.6514 21.3002 11.7778 21.3607 11.9396 21.3607L14.8978 21.3607C15.1104 21.3607 15.2572 21.27 15.3379 21.0876 15.439 20.9055 15.4192 20.7336 15.2771 20.5717 12.3242 16.9508 10.0029 14.2403 8.31381 12.44 10.0332 12.2378 11.429 11.6814 12.5011 10.7713 13.5731 9.86115 14.2253 8.67758 14.4581 7.2212L17.0069 7.2212C17.1483 7.2212 17.2647 7.17583 17.3556 7.08475 17.4467 6.99394 17.4923 6.87757 17.4923 6.73601L17.4923 5.18861C17.4923 5.04679 17.4467 4.93058 17.3556 4.8395Z" fill="#FFFFFF" transform="matrix(0.632757 -0.774376 0.774361 0.632744 253.282 226.04)"/></g></g></g><g clip-path="url(#clip16)"><g clip-path="url(#clip17)"><g clip-path="url(#clip18)"><path d="M0 17.9454 0 0 33.985 0 67.9702 0 67.9702 17.9454 67.9702 35.8908 33.985 35.8908 0 35.8908ZM58.9046 32.1587C59.3382 29.1519 61.674 27.0214 64.5558 27.0044L65.7468 26.9975 65.7468 17.9454 65.7468 8.89326 64.5558 8.88627C61.674 8.86942 59.3382 6.73884 58.9046 3.73197L58.6871 2.22328 34.0145 2.22328 9.34204 2.22328 8.97359 3.97986C8.77095 4.94596 8.29106 6.17751 7.9072 6.71662 7.06521 7.89908 5.04069 8.87675 3.41439 8.88627L2.22332 8.89326 2.22332 17.9454 2.22332 26.9975 3.41439 27.0044C5.04069 27.014 7.06521 27.9917 7.9072 29.1741 8.29106 29.7132 8.77095 30.9448 8.97359 31.9109L9.34204 33.6674 34.0145 33.6674 58.6871 33.6674ZM10.8109 30.218C10.2063 27.9724 7.89661 25.8868 4.99626 24.9675 4.47787 24.8032 4.44086 24.2555 4.51983 17.9173L4.60545 11.0454 6.26185 10.4277C8.23254 9.69282 10.3144 7.51673 10.8109 5.67272L11.1411 4.44665 33.947 4.44665 56.7529 4.44665 57.1199 5.67128C57.8035 7.95298 60.0991 10.0138 62.9677 10.9209 63.4744 11.0811 63.5235 11.7015 63.5235 17.9454 63.5235 24.1893 63.4744 24.8096 62.9677 24.9698 60.0716 25.8857 57.8189 27.8861 57.143 30.1427L56.7529 31.4442 33.947 31.4442 11.1411 31.4442ZM12.3982 19.8453C13.4784 19.2868 13.892 18.0775 13.3841 16.9627 12.4328 14.8747 9.21091 15.6333 9.21091 17.9454 9.21091 19.094 9.98326 19.9369 11.3706 20.3025 11.4229 20.3163 11.8854 20.1106 12.3982 19.8453ZM58.2188 19.4328C59.0686 18.6859 58.8219 16.9028 57.7599 16.1132 56.1065 14.8842 53.7948 16.663 54.4872 18.6316 55.0557 20.2483 56.852 20.634 58.2188 19.4328Z" fill="#D7B169" transform="matrix(0.770077 -0.637951 0.637951 0.770077 268.136 249.614)"/></g></g></g><g clip-path="url(#clip19)"><g clip-path="url(#clip20)"><g clip-path="url(#clip21)"><path d="M17.3556 4.8395C17.2647 4.74848 17.1483 4.70304 17.0069 4.70304L14.4127 4.70304C14.2406 3.86385 13.917 3.1354 13.4417 2.51848L16.9763 2.51848C17.1182 2.51848 17.2342 2.47299 17.3255 2.38218 17.416 2.29121 17.4615 2.17479 17.4615 2.03323L17.4615 0.485459C17.4615 0.343796 17.4161 0.227586 17.3255 0.136509 17.2341 0.0456446 17.1181 0 16.9762 0L4.35409 0C4.21243 0 4.09622 0.0456446 4.00514 0.136456 3.91433 0.227532 3.86869 0.343743 3.86869 0.485406L3.86869 2.50312C3.86869 2.63458 3.91672 2.74835 4.0128 2.84442 4.10887 2.94049 4.22263 2.98853 4.35409 2.98853L6.55391 2.98853C8.68784 2.98853 10.0431 3.5598 10.6196 4.70278L4.35409 4.70278C4.21243 4.70278 4.09606 4.74821 4.00514 4.83923 3.91433 4.93036 3.86869 5.04652 3.86869 5.18818L3.86869 6.73574C3.86869 6.8773 3.91412 6.99367 4.00514 7.08448 4.09622 7.17561 4.21264 7.22094 4.35409 7.22094L10.8323 7.22094C10.6097 8.05051 10.0913 8.68252 9.27707 9.11745 8.46275 9.55243 7.38837 9.76992 6.05325 9.76992L4.35409 9.76992C4.22263 9.76992 4.10887 9.81801 4.0128 9.91402 3.91667 10.0101 3.86869 10.124 3.86869 10.2553L3.86869 12.1822C3.86869 12.3139 3.91412 12.4251 4.00514 12.516 5.94693 14.5792 8.46541 17.4665 11.5603 21.1787 11.6514 21.3002 11.7778 21.3607 11.9396 21.3607L14.8978 21.3607C15.1104 21.3607 15.2572 21.27 15.3379 21.0876 15.439 20.9055 15.4192 20.7336 15.2771 20.5717 12.3242 16.9508 10.0029 14.2403 8.31381 12.44 10.0332 12.2378 11.429 11.6814 12.5011 10.7713 13.5731 9.86115 14.2253 8.67758 14.4581 7.2212L17.0069 7.2212C17.1483 7.2212 17.2647 7.17583 17.3556 7.08475 17.4467 6.99394 17.4923 6.87757 17.4923 6.73601L17.4923 5.18861C17.4923 5.04679 17.4467 4.93058 17.3556 4.8395Z" fill="#FFFFFF" transform="matrix(0.78411 -0.620638 0.620632 0.784102 289.606 241.164)"/></g></g></g><path d="M309 340C309 330.611 316.611 323 326 323 335.389 323 343 330.611 343 340 343 349.389 335.389 357 326 357 316.611 357 309 349.389 309 340Z" fill="#D7B169" fill-rule="evenodd"/><g clip-path="url(#clip22)"><g clip-path="url(#clip23)"><g clip-path="url(#clip24)"><path d="M15.4373 4.30461C15.3565 4.22365 15.253 4.18323 15.1271 4.18323L12.8197 4.18323C12.6667 3.4368 12.3788 2.78885 11.956 2.24012L15.1 2.24012C15.2262 2.24012 15.3294 2.19966 15.4105 2.11889 15.4911 2.03797 15.5315 1.93442 15.5315 1.80851L15.5315 0.431803C15.5315 0.305798 15.4911 0.202431 15.4105 0.121421 15.3293 0.0405997 15.2261 0 15.0999 0L3.87285 0C3.74685 0 3.64348 0.0405997 3.56247 0.121374 3.4817 0.202384 3.4411 0.30575 3.4411 0.431756L3.4411 2.22646C3.4411 2.34339 3.48382 2.44458 3.56928 2.53004 3.65473 2.61549 3.75592 2.65822 3.87285 2.65822L5.82953 2.65822C7.7276 2.65822 8.93312 3.16635 9.44584 4.183L3.87285 4.183C3.74685 4.183 3.64334 4.22341 3.56247 4.30437 3.4817 4.38543 3.4411 4.48875 3.4411 4.61475L3.4411 5.99127C3.4411 6.11718 3.48151 6.22069 3.56247 6.30146 3.64348 6.38252 3.74704 6.42284 3.87285 6.42284L9.63503 6.42284C9.43709 7.16072 8.97598 7.72288 8.25171 8.10973 7.52739 8.49663 6.57176 8.69009 5.38421 8.69009L3.87285 8.69009C3.75592 8.69009 3.65473 8.73286 3.56928 8.81826 3.48378 8.90377 3.4411 9.005 3.4411 9.12184L3.4411 10.8358C3.4411 10.9529 3.48151 11.0518 3.56247 11.1327 5.28964 12.9678 7.52976 15.536 10.2825 18.8379 10.3636 18.9459 10.476 18.9998 10.62 18.9998L13.2512 18.9998C13.4403 18.9998 13.5709 18.9191 13.6426 18.7568 13.7326 18.5949 13.7149 18.442 13.5886 18.298 10.9621 15.0773 8.89729 12.6664 7.39491 11.0651 8.92428 10.8852 10.1658 10.3903 11.1194 9.58082 12.0729 8.77124 12.6531 7.71848 12.8601 6.42307L15.1271 6.42307C15.253 6.42307 15.3565 6.38271 15.4373 6.3017 15.5184 6.22092 15.559 6.11742 15.559 5.9915L15.559 4.61513C15.559 4.48899 15.5184 4.38562 15.4373 4.30461Z" fill="#FFFFFF" transform="matrix(1 0 -0 1.05263 317 330)"/></g></g></g><path d="M487.838 187.587C487.711 187.463 487.548 187.401 487.351 187.401L483.727 187.401C483.487 186.259 483.035 185.267 482.371 184.428L487.308 184.428C487.506 184.428 487.668 184.366 487.796 184.242 487.922 184.118 487.986 183.96 487.986 183.767L487.986 181.661C487.986 181.468 487.922 181.31 487.796 181.186 487.668 181.062 487.506 181 487.308 181L469.678 181C469.48 181 469.318 181.062 469.191 181.186 469.064 181.31 469 181.468 469 181.661L469 184.407C469 184.586 469.067 184.74 469.201 184.871 469.336 185.002 469.494 185.067 469.678 185.067L472.751 185.067C475.731 185.067 477.624 185.845 478.429 187.4L469.678 187.4C469.48 187.4 469.318 187.462 469.191 187.586 469.064 187.71 469 187.868 469 188.061L469 190.167C469 190.36 469.063 190.518 469.191 190.642 469.318 190.766 469.48 190.828 469.678 190.828L478.726 190.828C478.416 191.957 477.691 192.817 476.554 193.409 475.417 194.001 473.916 194.297 472.051 194.297L469.678 194.297C469.494 194.297 469.336 194.362 469.201 194.493 469.067 194.624 469 194.779 469 194.957L469 197.58C469 197.759 469.063 197.911 469.191 198.034 471.903 200.842 475.42 204.772 479.743 209.824 479.871 209.99 480.047 210.072 480.273 210.072L484.405 210.072C484.702 210.072 484.907 209.948 485.02 209.7 485.161 209.452 485.133 209.218 484.935 208.998 480.81 204.07 477.568 200.381 475.209 197.931 477.61 197.656 479.56 196.898 481.057 195.66 482.555 194.421 483.466 192.81 483.791 190.828L487.351 190.828C487.548 190.828 487.711 190.766 487.838 190.642 487.965 190.519 488.029 190.36 488.029 190.168L488.029 188.062C488.029 187.869 487.965 187.711 487.838 187.587Z" fill="#D0D0D0" fill-rule="evenodd"/><path d="M58.7952 45.4035C58.6348 45.2455 58.4294 45.1666 58.1798 45.1666L53.6029 45.1666C53.2994 43.7094 52.7284 42.4444 51.8898 41.3732L58.126 41.3732C58.3762 41.3732 58.581 41.2942 58.742 41.1365 58.9017 40.9785 58.982 40.7764 58.982 40.5306L58.982 37.843C58.982 37.597 58.9018 37.3952 58.742 37.237 58.5808 37.0792 58.3761 37 58.1259 37L35.8564 37C35.6065 37 35.4014 37.0792 35.2407 37.2369 35.0805 37.3951 35 37.5969 35 37.8429L35 41.3465C35 41.5748 35.0848 41.7724 35.2543 41.9392 35.4238 42.106 35.6245 42.1894 35.8564 42.1894L39.7376 42.1894C43.5025 42.1894 45.8937 43.1814 46.9107 45.1661L35.8564 45.1661C35.6065 45.1661 35.4011 45.245 35.2407 45.403 35.0805 45.5613 35 45.763 35 46.009L35 48.6963C35 48.942 35.0802 49.1441 35.2407 49.3018 35.4014 49.46 35.6068 49.5388 35.8564 49.5388L47.2859 49.5388C46.8934 50.9793 45.9787 52.0767 44.5421 52.8319 43.1053 53.5872 41.2099 53.965 38.8542 53.965L35.8564 53.965C35.6245 53.965 35.4238 54.0484 35.2543 54.2151 35.0847 54.3821 35 54.5797 35 54.8078L35 58.1538C35 58.3824 35.0802 58.5755 35.2407 58.7334 38.6667 62.316 43.11 67.3297 48.5703 73.7756 48.7312 73.9866 48.954 74.0918 49.2396 74.0918L54.4589 74.0918C54.834 74.0918 55.0929 73.9342 55.2352 73.6174 55.4137 73.3013 55.3787 73.0027 55.1281 72.7216 49.9182 66.4342 45.8227 61.7275 42.8426 58.6015 45.8762 58.2503 48.3387 57.2842 50.2303 55.7038 52.1216 54.1234 53.2724 52.0682 53.6831 49.5392L58.1798 49.5392C58.4294 49.5392 58.6348 49.4605 58.7952 49.3023 58.9559 49.1446 59.0364 48.9425 59.0364 48.6967L59.0364 46.0098C59.0364 45.7634 58.9559 45.5617 58.7952 45.4035Z" fill="#D0D0D0" fill-rule="evenodd"/><path d="M447.838 138.587C447.711 138.463 447.548 138.401 447.351 138.401L443.727 138.401C443.487 137.259 443.035 136.267 442.371 135.428L447.308 135.428C447.506 135.428 447.668 135.366 447.796 135.242 447.922 135.118 447.986 134.96 447.986 134.767L447.986 132.661C447.986 132.468 447.922 132.31 447.796 132.186 447.668 132.062 447.506 132 447.308 132L429.678 132C429.48 132 429.318 132.062 429.191 132.186 429.064 132.31 429 132.468 429 132.661L429 135.407C429 135.586 429.067 135.74 429.201 135.871 429.336 136.002 429.494 136.067 429.678 136.067L432.751 136.067C435.731 136.067 437.624 136.845 438.429 138.4L429.678 138.4C429.48 138.4 429.318 138.462 429.191 138.586 429.064 138.71 429 138.868 429 139.061L429 141.167C429 141.36 429.063 141.518 429.191 141.642 429.318 141.766 429.48 141.828 429.678 141.828L438.726 141.828C438.416 142.957 437.691 143.817 436.554 144.409 435.417 145.001 433.916 145.297 432.051 145.297L429.678 145.297C429.494 145.297 429.336 145.362 429.201 145.493 429.067 145.624 429 145.779 429 145.957L429 148.58C429 148.759 429.063 148.911 429.191 149.034 431.903 151.842 435.42 155.772 439.743 160.824 439.871 160.99 440.047 161.072 440.273 161.072L444.405 161.072C444.702 161.072 444.907 160.948 445.02 160.7 445.161 160.452 445.133 160.218 444.935 159.998 440.81 155.07 437.568 151.381 435.209 148.931 437.61 148.656 439.56 147.898 441.057 146.66 442.555 145.421 443.466 143.81 443.791 141.828L447.351 141.828C447.548 141.828 447.711 141.766 447.838 141.642 447.965 141.519 448.029 141.36 448.029 141.168L448.029 139.062C448.029 138.869 447.965 138.711 447.838 138.587Z" fill="#D9D9D9" fill-rule="evenodd" fill-opacity="0.560784"/><path d="M0 0 480 0.000104987" stroke="#7C7C7B" stroke-width="2" stroke-miterlimit="8" fill="none" fill-rule="evenodd" transform="matrix(1 0 0 -1 23 504)"/><path d="M347 151.5C347 121.4 370.953 97 400.5 97 430.047 97 454 121.4 454 151.5 454 181.6 430.047 206 400.5 206 370.953 206 347 181.6 347 151.5Z" fill="#D9D9D9" fill-rule="evenodd"/><path d="M41.3578 22.8627C41.3578 22.8627 41.3578 22.8627 41.3578 22.8627 41.3578 22.4314 41.3578 22.4314 41.3578 22.4314 41.3578 21.1373 41.3578 21.1373 41.3578 21.1373 46 21.1373 46 21.1373 46 21.1373 43.4679 18.9804 40.9358 16.3922 38.8257 14.2353 38.8257 2.15686 38.8257 2.15686 38.8257 2.15686 38.8257 1.29412 37.9816 0.862745 37.1376 0.862745 32.0734 0.862745 32.0734 0.862745 32.0734 0.862745 31.2294 0.862745 30.3853 1.29412 30.3853 2.15686 30.3853 6.90196 30.3853 6.90196 30.3853 6.90196 28.2752 4.7451 26.1651 3.01961 24.4771 0.862745 23.633 0 22.789 0 22.367 0.862745 15.1927 6.90196 8.44037 13.3725 1.26605 19.8431 0.844037 19.8431 0.422018 20.2745 0 21.1373 3.37615 21.1373 3.37615 21.1373 3.37615 21.1373 3.37615 22.4314 3.37615 22.4314 3.37615 22.4314 3.37615 22.8627 3.37615 23.2941 3.37615 23.2941 3.37615 29.7647 3.37615 36.2353 3.37615 42.7059 3.37615 43.5686 3.79817 44 4.6422 44 8.01835 44 11.8165 44 15.6147 44 16.4587 44 16.8807 43.5686 16.8807 42.7059 16.4587 39.6863 16.8807 36.2353 16.8807 32.7843 16.8807 31.0588 17.7248 30.1961 19.4128 30.1961 21.1009 30.1961 22.789 30.1961 24.4771 30.1961 27.4312 30.1961 28.2752 31.0588 28.2752 34.0784 28.2752 37.098 28.2752 40.1176 28.2752 42.7059 28.2752 43.5686 28.2752 44 29.1193 44 32.9174 44 36.7156 44 40.0917 44 40.9358 44 41.3578 43.5686 41.3578 43.1373 41.3578 38.8235 41.3578 38.8235 41.3578 38.8235 41.3578 33.6471 41.3578 28.0392 41.3578 22.8627Z" fill="#695934" fill-rule="evenodd" transform="matrix(-1 -8.74228e-08 -8.74228e-08 1 419 114)"/><path d="M23.6826 3.9698 0.362955 3.61409C-0.0684741 9.21375-0.499583 14.2427 1.50536 21.2687L26.241 19.8425C27.0678 19.8425 27.8928 19.9084 28.7099 20.0396L59.3103 24.9772C59.6106 25.0354 59.9213 24.9816 60.1885 24.8253L88.7448 7.45363C89.5263 6.98474 90.0061 6.10766 90 5.16022 90.0006 4.21335 89.5214 3.33817 88.743 2.86547 87.9639 2.39253 87.0047 2.39456 86.2281 2.87064L70.9448 12.171C70.0175 13.6158 68.4703 14.4824 66.8156 14.4858L66.8028 14.4858C66.3871 14.4858 49.8049 11.8932 49.8049 11.8932 49.3508 11.837 48.9615 11.5251 48.7887 11.0794 48.6158 10.6332 48.6869 10.1235 48.9739 9.74838 49.2607 9.37379 49.7186 9.19285 50.1691 9.27691L66.1664 11.7543C67.2581 12.0294 68.3938 11.5335 68.9803 10.5253L68.987 10.5253 68.987 10.515C69.0975 10.3206 69.1821 10.1107 69.2377 9.89179 69.4124 9.21285 69.323 8.48884 68.9902 7.87992 68.6574 7.2701 68.1076 6.82582 67.4629 6.64432L55.6946 4.44577C53.7578 3.98801 51.8913 3.24523 50.1501 2.23946 47.3846 0.731427 44.3088-0.0370883 41.1952 0.00157344 38.1366-0.0391113 35.1138 0.701194 32.3856 2.15876 31.796 2.47525 31.18 2.7324 30.5456 2.9275 28.3206 3.63724 26.0069 3.98857 23.6826 3.9698Z" fill="#7C7C7B" fill-rule="evenodd" transform="matrix(-1 -8.74228e-08 -8.74228e-08 1 453 144)"/><path d="M74 151.5C74 121.4 97.7289 97 127 97 156.271 97 180 121.4 180 151.5 180 181.6 156.271 206 127 206 97.7289 206 74 181.6 74 151.5Z" fill="#D9D9D9" fill-rule="evenodd"/><path d="M98.1904 132.61 98.1904 148.835 98.1904 165.078 126.539 165.078 154.849 165.078 154.849 148.835 154.849 132.61 126.539 132.61 98.1904 132.61ZM97.0493 129 155.833 129C156.993 129.278 157.879 129.92 158.429 130.857L158.921 131.69 158.941 148.436C159 160.601 158.941 165.425 158.784 166.067 158.548 167.143 157.603 168.15 156.383 168.653L155.518 169 126.952 169C111.273 169 98.0527 168.948 97.6592 168.896 96.6559 168.74 95.987 168.41 95.2591 167.716 94 166.553 94.059 167.334 94.059 148.957 94.059 130.944 94.0393 131.447 95.0623 130.215 95.3771 129.885 95.987 129.451 96.4788 129.243L97.0493 129Z" fill="#7C7C7B" fill-rule="evenodd"/><path d="M90 173.7 90 173.241C90.4534 172.964 91.5178 172.411 93.0554 171.668 95.8348 170.308 96.4262 170.079 96.9387 170.04 97.2147 170.016 104.922 170 115.665 170L115.665 170C119.233 170 123.156 170 127.217 170.016 156.529 170.024 156.884 170.04 157.278 170.19 157.515 170.269 159.052 170.98 160.669 171.779 163.842 173.304 164 173.447 163.29 173.802L162.955 173.976 126.961 173.992C107.189 174 90.8673 173.992 90.7096 173.96 90.4534 173.929 90.1971 173.818 90 173.7ZM130.391 171.747C129.385 171.747 128.202 171.747 126.823 171.747 119.411 171.747 117.223 171.755 116.966 171.842 116.789 171.889 116.513 172.158 116.355 172.443 116.079 172.893 116.079 172.972 116.355 173.178L116.671 173.415 126.704 173.415C136.541 173.415 136.718 173.415 137.053 173.249 137.388 173.115 137.388 173.059 137.191 172.553 136.856 171.771 137.546 171.731 130.391 171.747Z" fill="#7C7C7B" fill-rule="evenodd"/><rect x="97" y="132" width="60" height="34" fill="#F2F2F2"/><g clip-path="url(#clip25)"><g clip-path="url(#clip26)"><g clip-path="url(#clip27)"><path d="M127 140.882 116.301 149.703C116.301 149.715 116.298 149.733 116.291 149.758 116.285 149.783 116.282 149.801 116.282 149.814L116.282 158.746C116.282 159.068 116.4 159.348 116.636 159.583 116.871 159.818 117.15 159.937 117.473 159.937L124.618 159.937 124.618 152.791 129.382 152.791 129.382 159.937 136.527 159.937C136.85 159.937 137.129 159.819 137.364 159.583 137.6 159.348 137.719 159.068 137.719 158.746L137.719 149.814C137.719 149.764 137.712 149.727 137.7 149.703L127 140.882Z" fill="#695934"/><path d="M141.793 147.693 137.718 144.306 137.718 136.714C137.718 136.541 137.662 136.398 137.55 136.286 137.439 136.175 137.297 136.119 137.123 136.119L133.55 136.119C133.376 136.119 133.234 136.175 133.122 136.286 133.01 136.398 132.955 136.541 132.955 136.714L132.955 140.343 128.414 136.547C128.018 136.224 127.546 136.063 127 136.063 126.455 136.063 125.983 136.224 125.586 136.547L112.207 147.693C112.083 147.792 112.015 147.925 112.002 148.093 111.99 148.26 112.033 148.406 112.132 148.53L113.286 149.907C113.385 150.019 113.515 150.087 113.677 150.112 113.826 150.125 113.975 150.081 114.123 149.982L127 139.245 139.877 149.982C139.976 150.068 140.106 150.112 140.267 150.112L140.323 150.112C140.484 150.087 140.614 150.019 140.714 149.907L141.868 148.53C141.967 148.406 142.011 148.26 141.998 148.093 141.985 147.926 141.917 147.792 141.793 147.693Z" fill="#695934"/></g></g></g><path d="M210 86.5C210 56.4005 233.729 32 263 32 292.271 32 316 56.4005 316 86.5 316 116.6 292.271 141 263 141 233.729 141 210 116.6 210 86.5Z" fill="#D9D9D9" fill-rule="evenodd"/><path d="M265 57 250.026 69.4983C250.026 69.5158 250.022 69.5419 250.013 69.5772 250.005 69.6123 250 69.6378 250 69.6559L250 82.3118C250 82.7686 250.165 83.1646 250.495 83.4981 250.825 83.8318 251.215 83.9997 251.667 83.9997L261.666 83.9997 261.666 73.8748 268.333 73.8748 268.333 84 278.333 84C278.784 84 279.175 83.8326 279.505 83.4981 279.835 83.165 280 82.7688 280 82.3118L280 69.6559C280 69.5858 279.991 69.5326 279.974 69.4983L265 57Z" fill="#695934" fill-rule="evenodd"/><path d="M285.71 66.5538 280.005 61.7334 280.005 50.9272C280.005 50.6801 279.927 50.477 279.771 50.318 279.615 50.1592 279.415 50.0798 279.172 50.0798L274.17 50.0798C273.927 50.0798 273.727 50.1592 273.571 50.318 273.414 50.477 273.336 50.6803 273.336 50.9272L273.336 56.0918 266.98 50.6886C266.425 50.2295 265.765 50 265.001 50 264.236 50 263.577 50.2295 263.021 50.6886L244.29 66.5538C244.116 66.6948 244.021 66.8845 244.003 67.1229 243.985 67.3611 244.046 67.5692 244.185 67.7457L245.8 69.7056C245.939 69.8644 246.122 69.9616 246.347 69.9972 246.556 70.015 246.764 69.953 246.973 69.8118L265 54.5291 283.027 69.8117C283.167 69.9349 283.349 69.9964 283.574 69.9964L283.653 69.9964C283.878 69.9615 284.06 69.8638 284.2 69.7052L285.815 67.7456C285.954 67.5687 286.015 67.3611 285.997 67.1225 285.979 66.8847 285.884 66.695 285.71 66.5538Z" fill="#695934" fill-rule="evenodd"/><path d="M263.5 115.575C262.99 115.325 262.504 114.951 262.407 114.776 262.213 114.476 263.476 110.503 263.889 110.053 264.01 109.928 264.763 110.453 265.54 111.178 266.633 112.227 266.973 112.752 266.973 113.476 266.973 114.351 266.05 115.75 265.467 115.75 265.321 115.75 265.03 115.825 264.811 115.925 264.569 116 263.986 115.85 263.5 115.575ZM257.672 115.2C256.53 114.276 256.506 113.252 257.575 110.078 258.837 106.33 258.886 106.231 259.954 105.781 261.12 105.281 262.383 105.856 262.99 107.105 263.354 107.905 263.281 108.304 262.237 111.428 261.533 113.576 260.877 115.026 260.489 115.3 259.663 115.9 258.473 115.875 257.672 115.2ZM268.891 112.102C264.763 108.854 264.277 108.404 264.253 107.705 264.253 107.33 263.791 106.505 263.257 105.906 262.504 105.031 261.97 104.756 260.902 104.606 259.785 104.482 259.299 104.182 258.303 103.082 257.186 101.858 256.919 101.708 255.705 101.708 254.976 101.708 254.078 101.908 253.713 102.183 253.106 102.608 253.009 102.558 252.014 101.558 250.824 100.309 249.391 100.109 247.861 100.934 247.035 101.358 246.938 101.358 246.088 100.459 244.51 98.8347 242.64 98.8347 241.158 100.484 240.697 100.984 240.236 101.383 240.114 101.383 239.653 101.383 232.319 96.9108 232.173 96.5361 231.979 96.0363 240.236 80.77 240.697 80.77 240.891 80.77 241.936 81.1448 243.028 81.5696 244.145 82.0443 245.36 82.3191 245.87 82.2442 246.38 82.1692 248.565 81.5196 250.726 80.77 254.903 79.3458 256.773 78.971 257.065 79.4708 257.162 79.6207 255.389 81.1448 253.131 82.8189 250.775 84.5928 248.832 86.2669 248.565 86.7916 247.788 88.3657 248.711 90.5645 250.605 91.5639 252.329 92.4884 253.811 92.1635 259.566 89.665 262.553 88.3657 265.224 87.3413 265.491 87.3913 265.783 87.4412 269.741 90.5145 274.306 94.2124 286.57 104.157 286.109 103.707 286.109 105.006 286.109 106.33 284.992 107.63 283.85 107.63 283.34 107.63 280.499 105.531 274.598 100.759 269.935 96.9858 265.88 93.8876 265.637 93.8876 264.374 93.8876 265.686 95.2118 272.145 100.434 275.982 103.557 279.333 106.455 279.6 106.855 280.208 107.805 279.94 109.329 279.018 109.978 277.585 111.028 277.051 110.703 269.377 104.507 265.346 101.233 261.897 98.6099 261.703 98.6599 260.804 98.9847 261.63 99.8592 266.438 103.757 273.311 109.379 273.651 109.729 273.651 110.928 273.651 112.177 272.582 113.252 271.32 113.252 270.712 113.252 269.862 112.852 268.891 112.102ZM252.305 111.977C251.746 111.528 251.504 111.053 251.504 110.353 251.504 108.929 253.276 103.832 253.981 103.182 255.389 101.958 257.866 103.032 257.866 104.856 257.866 106.131 256.118 111.128 255.389 111.902 254.563 112.802 253.349 112.852 252.305 111.977ZM247.157 108.879C246.72 108.529 246.282 107.98 246.185 107.63 245.942 106.855 247.084 103.257 247.885 102.183 249.148 100.534 251.941 101.533 251.916 103.607 251.892 105.431 250.605 108.554 249.634 109.054 248.517 109.654 248.079 109.629 247.157 108.879ZM242.178 106.081C240.843 105.531 240.503 103.757 241.377 101.883 242.737 98.9597 246.477 100.234 245.894 103.457 245.651 104.756 244.243 106.405 243.393 106.38 243.101 106.355 242.543 106.231 242.178 106.081ZM284.433 100.834C281.276 98.2101 267.895 87.2663 266.778 86.4168 265.734 85.6423 265.588 85.6672 262.262 87.1914 260.367 88.0659 255.243 90.2396 254.078 90.6644 253.009 91.0642 252.718 91.0642 251.601 90.6144 249.707 89.8649 248.857 88.1908 249.755 87.0165 249.974 86.7666 252.184 85.0176 254.685 83.1437L259.226 79.7206 264.083 78.0715C266.754 77.1471 269.11 76.3975 269.28 76.3975 269.474 76.3975 272.291 77.7467 275.569 79.3708 278.823 80.9949 281.689 82.3441 281.932 82.3441 282.15 82.3441 283.219 81.9943 284.287 81.5696 285.356 81.1198 286.376 80.77 286.57 80.77 286.959 80.77 295.215 95.7865 295.215 96.4861 295.215 96.9608 287.59 102.658 286.983 102.633 286.74 102.633 285.599 101.808 284.433 100.834ZM224.184 94.3123C221.925 93.038 219.278 91.5389 218.307 91.0142 216.389 89.9648 216 89.4401 216.534 88.5656 216.947 87.891 219.036 83.9682 222.654 77.0721 224.038 74.4486 225.349 72.2249 225.568 72.1249 225.908 72 227.948 73.0744 236.156 77.6968 237.006 78.1715 237.832 78.7711 237.977 79.046 238.342 79.5957 238.244 79.7956 233.169 89.3651 229.769 95.7865 229.186 96.7359 228.604 96.686 228.434 96.661 226.442 95.6116 224.184 94.3123ZM297.887 96.1613C297.085 95.2368 289.144 80.0204 289.144 79.4458 289.144 78.8211 289.8 78.3964 296.502 74.6485 299.149 73.1743 301.481 72.05 301.699 72.1249 301.918 72.2249 303.836 75.573 305.949 79.5707 308.062 83.5934 310.077 87.3913 310.441 88.0159 310.781 88.6405 311 89.3651 310.903 89.615 310.83 89.8649 309.907 90.5145 308.863 91.0642 307.843 91.6139 305.172 93.113 302.913 94.3873 300.679 95.6616 298.736 96.711 298.591 96.711 298.445 96.711 298.129 96.4611 297.887 96.1613Z" fill="#7C7C7B" fill-rule="evenodd"/><path d="M311.923 66 313.108 68.178C314.461 71.3719 315.512 74.7244 316.224 78.2001L317 85.8854 310.139 90 300 73.1503 311.923 66Z" fill="#7C7C7B" fill-rule="evenodd"/><path d="M11.9235 0 13.1077 2.17804C14.4609 5.37186 15.5116 8.72441 16.224 12.2L17 19.8854 10.1386 24 0 7.15031 11.9235 0Z" fill="#7C7C7B" fill-rule="evenodd" transform="matrix(-1 -8.74228e-08 -8.74228e-08 1 226 65)"/><path d="M369.861 211 381.707 211 382.477 211 381.9 211.77 370.246 225.639 369.475 225.447 369.475 211.385 369.475 211 369.861 211ZM366.875 258 381.514 258 381.514 244.805 387.486 244.805 387.486 258 402.125 258 402.125 238.16 408 238.16 384.5 211.963 361 238.16 366.875 238.16 366.875 258Z" fill="#D0D0D0" fill-rule="evenodd"/><path d="M30 281.5C30 251.4 53.7289 227 83 227 112.271 227 136 251.4 136 281.5 136 311.6 112.271 336 83 336 53.7289 336 30 311.6 30 281.5Z" fill="#D9D9D9" fill-rule="evenodd"/><path d="M65.7692 253C79.7692 253 79.7692 253 79.7692 253 80.6308 253 80.6308 253 80.6308 253 79.9846 253.877 79.9846 253.877 79.9846 253.877 65.9846 270.758 65.9846 270.758 65.9846 270.758 65.3385 270.538 65.3385 270.538 65.3385 270.538 65.3385 253.438 65.3385 253.438 65.3385 253.438 65.3385 253 65.3385 253 65.3385 253L65.7692 253ZM98.9385 290.269C90.9692 282.158 90.9692 282.158 90.9692 282.158 89.8923 282.815 89.8923 282.815 89.8923 282.815 88.3846 281.281 88.3846 281.281 88.3846 281.281 90.7538 277.773 90.5385 272.95 87.5231 269.881 84.0769 266.373 78.4769 266.373 75.0308 269.881 71.5846 273.169 71.5846 278.869 75.0308 282.377 78.0462 285.446 83 285.885 86.2308 283.254 87.7385 284.788 87.7385 284.788 87.7385 284.788 87.3077 285.885 87.3077 285.885 87.3077 285.885 95.0615 293.996 95.0615 293.996 95.0615 293.996 95.0615 293.996 96.7846 293.996 97.8615 292.9 98.9385 291.585 98.9385 290.269 98.9385 290.269ZM86.0154 280.842C86.0154 280.842 86.0154 280.842 86.0154 280.842 83.4308 283.692 79.1231 283.692 76.5385 280.842 73.9538 278.212 73.9538 273.827 76.5385 271.196 79.1231 268.565 83.4308 268.565 86.0154 271.196 88.6 273.827 88.6 278.212 86.0154 280.842ZM62.1077 310C79.5538 310 79.5538 310 79.5538 310 79.5538 293.996 79.5538 293.996 79.5538 293.996 86.4462 293.996 86.4462 293.996 86.4462 293.996 86.4462 310 86.4462 310 86.4462 310 103.892 310 103.892 310 103.892 310 103.892 286.104 103.892 286.104 103.892 286.104 111 286.104 111 286.104 111 286.104 83 254.096 83 254.096 83 254.096 55 286.104 55 286.104 55 286.104 62.1077 286.104 62.1077 286.104 62.1077 286.104L62.1077 310Z" fill="#695934" fill-rule="evenodd"/><path d="M164.998 333.655C162.956 333.007 161.457 331.713 160.571 329.814L160 328.605 160 300.107C160 272.156 160 271.58 160.357 270.645 160.942 269.049 162.113 267.754 163.727 266.92L165.127 266.2 169.382 266.143 173.623 266.085 173.68 269.739C173.752 273.925 173.88 274.414 175.365 275.896 176.508 277.047 177.565 277.522 179.221 277.594 181.706 277.709 183.548 276.702 184.705 274.573L185.347 273.393 185.404 269.754 185.461 266.114 196.414 266.114 207.367 266.114 207.424 269.754C207.481 273.336 207.496 273.407 207.981 274.343 208.595 275.522 209.638 276.572 210.752 277.119 211.451 277.464 211.865 277.536 213.279 277.536 214.721 277.536 215.107 277.464 215.864 277.09 216.992 276.529 218.092 275.436 218.648 274.299 219.063 273.451 219.091 273.192 219.134 269.754L219.191 266.114 223.104 266.114C226.603 266.114 227.145 266.157 228.159 266.488 229.601 266.963 230.858 267.927 231.715 269.178 233 271.077 232.929 269.164 232.871 300.481 232.829 326.908 232.814 328.649 232.514 329.397 232.043 330.591 230.929 331.972 229.858 332.691 227.902 334 230.401 333.914 196.343 333.899 172.124 333.885 165.569 333.842 164.998 333.655ZM225.203 328.059C226.088 327.685 226.645 327.138 227.045 326.26 227.359 325.584 227.374 324.621 227.374 305.804L227.388 286.081 196.414 286.081 165.441 286.081 165.441 305.775C165.441 323.139 165.484 325.541 165.726 326.131 166.083 327.023 166.626 327.598 167.497 327.987 168.183 328.318 169.382 328.332 196.371 328.332 221.405 328.332 224.618 328.303 225.203 328.059ZM172.409 317.989 172.409 314.853 176.693 314.853 180.978 314.853 180.978 317.989 180.978 321.139 176.693 321.139 172.409 321.139 172.409 317.989ZM185.619 317.989 185.619 314.853 189.803 314.853 194.001 314.853 194.001 317.989 194.001 321.139 189.803 321.139 185.619 321.139 185.619 317.989ZM198.828 317.989 198.828 314.853 203.026 314.853 207.21 314.853 207.21 317.989 207.21 321.139 203.026 321.139 198.828 321.139 198.828 317.989ZM211.937 320.909C211.88 320.78 211.865 319.384 211.894 317.802L211.937 314.939 216.178 314.896 220.419 314.838 220.419 317.989 220.419 321.139 216.221 321.139C212.951 321.139 212.008 321.096 211.937 320.909ZM172.409 307.199 172.409 304.063 176.693 304.063 180.978 304.063 180.978 307.199 180.978 310.35 176.693 310.35 172.409 310.35 172.409 307.199ZM185.619 307.199 185.619 304.063 189.803 304.063 194.001 304.063 194.001 307.199 194.001 310.35 189.803 310.35 185.619 310.35 185.619 307.199ZM198.828 307.199 198.828 304.063 203.026 304.063 207.21 304.063 207.21 307.199 207.21 310.35 203.026 310.35 198.828 310.35 198.828 307.199ZM211.98 310.235C211.823 310.077 211.808 304.725 211.965 304.337 212.051 304.092 212.608 304.063 216.249 304.063L220.419 304.063 220.419 307.199 220.419 310.35 216.264 310.35C213.965 310.35 212.037 310.292 211.98 310.235ZM172.524 299.446C172.467 299.374 172.409 297.964 172.409 296.295L172.409 293.274 176.693 293.274 180.978 293.274 180.935 296.367 180.878 299.474 176.765 299.517C174.509 299.546 172.595 299.517 172.524 299.446ZM185.619 296.41 185.619 293.274 189.803 293.274 194.001 293.274 194.001 296.41 194.001 299.561 189.803 299.561 185.619 299.561 185.619 296.41ZM198.828 296.41 198.828 293.274 203.026 293.274 207.21 293.274 207.21 296.41 207.21 299.561 203.026 299.561 198.828 299.561 198.828 296.41ZM211.937 299.33C211.88 299.201 211.865 297.806 211.894 296.223L211.937 293.36 216.192 293.317 220.433 293.26 220.376 296.367 220.334 299.474 216.178 299.517C212.894 299.561 212.008 299.517 211.937 299.33ZM178.164 274.026C177.836 273.839 177.422 273.407 177.222 273.091 176.893 272.544 176.865 272.17 176.865 267.466 176.865 262.892 176.893 262.359 177.208 261.798 178.15 260 181.077 260.043 181.934 261.87 182.177 262.388 182.22 263.266 182.22 267.495 182.22 272.17 182.206 272.544 181.863 273.091 181.377 273.911 180.506 274.386 179.549 274.386 179.064 274.386 178.507 274.242 178.164 274.026ZM211.894 274.026C211.58 273.839 211.151 273.407 210.966 273.091 210.623 272.544 210.609 272.17 210.609 267.495 210.609 262.733 210.623 262.446 210.98 261.813 211.466 260.935 212.265 260.475 213.279 260.475 214.293 260.475 215.164 260.921 215.607 261.669 215.935 262.215 215.964 262.604 215.964 267.38 215.964 272.17 215.935 272.53 215.607 273.091 215.107 273.911 214.25 274.386 213.279 274.386 212.794 274.386 212.251 274.242 211.894 274.026Z" fill="#7C7C7B" fill-rule="evenodd"/><path d="M284.773 474.818 285 496.382C283.936 501.403 283.186 502.902 280.482 503.93L192 504C193.989 502.71 197.391 498.596 196.414 490.96L196.152 329.987C196.414 317 205.032 320.87 205.311 330.458L205.171 475.463 284.773 474.818Z" fill="#BFBFBF" fill-rule="evenodd"/><path d="M174 485.965C175.142 485.634 178.08 484.029 178.37 477.051L178.262 351.532C180.003 337 187.021 344.292 187.801 350.695L188 486C183.031 486 178.987 485.965 174 485.965Z" fill="#BFBFBF" fill-rule="evenodd"/><path d="M168.865 471.667 156 472C156.64 471.475 160.395 471.019 160.041 461.282L160.041 363.977C160.833 351 169 356.464 168.697 364.012L168.865 471.667Z" fill="#BFBFBF" fill-rule="evenodd"/><path d="M295 476.434 205.584 477 205.619 328.723C204.359 321.336 202.416 321.601 200 321.053L290.624 321C293.284 322.697 294.632 325.56 294.737 329.395L295 476.434Z" fill="#695934" fill-rule="evenodd"/><path d="M187.648 495.281 187.462 350.569C187.175 348.402 186.245 343.577 182 343L196.611 343.14 197 494.267C196.594 502.833 189.272 510 187.648 495.281Z" fill="#695934" fill-rule="evenodd"/><path d="M179 356 163 356.017C168.543 357.169 168.84 362.195 168.636 364.394L169.063 478.513C169.545 484.482 171.769 486 174.606 485.983 178.277 484.15 178.017 481.742 178.981 479.49L179 356Z" fill="#695934" fill-rule="evenodd"/><path d="M160.294 462 150.186 462C150 465.596 150.632 470.151 154.775 471.452 157.34 472 161 468.13 160.294 462Z" fill="#695934" fill-rule="evenodd"/><path d="M219 363.935C219 362.866 219.866 362 220.935 362L234.065 362C235.134 362 236 362.866 236 363.935L236 377.065C236 378.134 235.134 379 234.065 379L220.935 379C219.866 379 219 378.134 219 377.065Z" fill="#FFFFFF" fill-rule="evenodd"/><path d="M219 391.935C219 390.866 219.866 390 220.935 390L234.065 390C235.134 390 236 390.866 236 391.935L236 405.065C236 406.134 235.134 407 234.065 407L220.935 407C219.866 407 219 406.134 219 405.065Z" fill="#FFFFFF" fill-rule="evenodd"/><path d="M219 419.935C219 418.866 219.866 418 220.935 418L234.065 418C235.134 418 236 418.866 236 419.935L236 434.065C236 435.134 235.134 436 234.065 436L220.935 436C219.866 436 219 435.134 219 434.065Z" fill="#FFFFFF" fill-rule="evenodd"/><path d="M241 366.5C241 365.672 241.672 365 242.5 365L284.5 365C285.328 365 286 365.672 286 366.5L286 366.5C286 367.328 285.328 368 284.5 368L242.5 368C241.672 368 241 367.328 241 366.5Z" fill="#FFFFFF" fill-rule="evenodd"/><path d="M241 372C241 371.448 241.448 371 242 371L267 371C267.552 371 268 371.448 268 372L268 372C268 372.552 267.552 373 267 373L242 373C241.448 373 241 372.552 241 372Z" fill="#FFFFFF" fill-rule="evenodd"/><path d="M241 395.5C241 394.672 241.672 394 242.5 394L284.5 394C285.328 394 286 394.672 286 395.5L286 395.5C286 396.328 285.328 397 284.5 397L242.5 397C241.672 397 241 396.328 241 395.5Z" fill="#FFFFFF" fill-rule="evenodd"/><path d="M241 401.5C241 400.672 241.672 400 242.5 400L266.5 400C267.328 400 268 400.672 268 401.5L268 401.5C268 402.328 267.328 403 266.5 403L242.5 403C241.672 403 241 402.328 241 401.5Z" fill="#FFFFFF" fill-rule="evenodd"/><path d="M241 424.5C241 423.672 241.672 423 242.5 423L284.5 423C285.328 423 286 423.672 286 424.5L286 424.5C286 425.328 285.328 426 284.5 426L242.5 426C241.672 426 241 425.328 241 424.5Z" fill="#FFFFFF" fill-rule="evenodd"/><path d="M241 430.5C241 429.672 241.672 429 242.5 429L266.5 429C267.328 429 268 429.672 268 430.5L268 430.5C268 431.328 267.328 432 266.5 432L242.5 432C241.672 432 241 431.328 241 430.5Z" fill="#FFFFFF" fill-rule="evenodd"/><path d="M55.0697 0.00370954C52.7407 0.0337008 50.5087 0.207034 48.5677 0.546702 44.041 1.33837 40.5643 2.63003 39.3503 3.97169 38.4207 4.9987 38.5363 5.57102 41.8047 16.1384 43.013 20.0454 43.9583 23.2847 43.907 23.3364 43.8547 23.3887 42.332 20.5297 40.5233 16.9827 37.3813 10.8194 37.184 10.547 36.0917 10.8194 33.5843 11.445 28.9749 15.0587 27.8092 17.313 27.4585 17.9914 27.1712 19.2524 27.1712 20.1144 27.1712 21.497 28.071 22.746 34.789 30.6917 38.979 35.6473 42.5503 39.8633 42.726 40.061 42.9013 40.2587 44.3117 39.9937 45.8594 39.4723 48.1373 38.7053 49.5243 38.548 53.1443 38.649L57.6157 38.7733 60.7153 34.2633C62.4203 31.7834 63.8713 29.81 63.938 29.8767 64.0054 29.944 63.2603 31.9657 62.2823 34.369 61.3047 36.7724 60.5043 38.8577 60.5043 39.0037 60.5043 39.1497 61.5547 39.594 62.8377 39.99L62.8377 39.99C64.1213 40.386 65.197 40.733 65.2297 40.762 65.375 40.89 79.818 24.11 80.77 22.7067 82.6653 19.914 81.9727 16.6554 78.8087 13.4834 75.9067 10.5744 75.9857 10.555 72.6483 15.011 71.0033 17.207 69.604 18.95 69.5383 18.8847 69.4167 18.763 70.7133 15.5274 73.5677 8.82737 74.4497 6.75703 75.171 4.84402 75.171 4.57603 75.171 4.30803 74.401 3.65571 73.4603 3.12668 69.9217 1.13802 62.0567-0.0826247 55.0697 0.00437445ZM54.388 42.5917C53.201 42.5917 51.9137 42.8413 51.5273 43.147 51.1407 43.4523 49.091 46.0527 46.972 48.925 44.853 51.797 43.0457 54.147 42.9537 54.147 42.8623 54.147 44.074 51.814 45.6463 48.9627 47.219 46.111 48.4183 43.6907 48.311 43.5837 47.8793 43.152 42.961 45.8093 39.726 48.223 33.4217 52.9263 22.8306 63.813 17.1002 71.4803 7.33543 84.5456 1.14334 98.23 0.154261 108.929-0.262502 113.437 0.189676 119.157 1.2161 122.359 3.14212 128.367 8.73858 135.117 13.1685 136.774 18.1414 138.635 26.9677 140.022 38.8223 140.804 46.9397 141.34 70.4523 140.974 78.2823 140.189 85.6203 139.454 92.7323 138.104 96.3027 136.768 101.046 134.993 106.283 128.337 108.333 121.48 109.304 118.23 109.42 109.087 108.541 105.036 105.141 89.3593 94.2553 71.297 79.2117 56.3683 73.5107 50.711 68.7077 46.9147 64.6347 44.8447 61.279 43.1394 60.305 43.0703 60.6803 44.5657 61.4683 47.706 63.0647 55.5223 62.88 55.3377 62.7623 55.22 61.2893 52.3043 59.606 48.8577L56.546 42.5917Z" fill="#D7B169" fill-rule="evenodd" transform="matrix(-1 -8.74228e-08 -8.74228e-08 1 383 364)"/><path d="M344.718 446.81C344.498 446.588 344.215 446.477 343.872 446.477L337.579 446.477C337.162 444.429 336.377 442.652 335.223 441.146L343.798 441.146C344.142 441.146 344.424 441.035 344.645 440.813 344.865 440.591 344.975 440.307 344.975 439.962L344.975 436.185C344.975 435.839 344.865 435.555 344.645 435.333 344.424 435.111 344.142 435 343.798 435L313.178 435C312.834 435 312.552 435.111 312.331 435.333 312.111 435.555 312 435.839 312 436.185L312 441.109C312 441.429 312.117 441.707 312.35 441.942 312.583 442.176 312.859 442.293 313.178 442.293L318.514 442.293C323.691 442.293 326.979 443.687 328.377 446.477L313.178 446.477C312.834 446.477 312.552 446.588 312.331 446.81 312.111 447.032 312 447.316 312 447.661L312 451.438C312 451.783 312.11 452.067 312.331 452.289 312.552 452.511 312.834 452.622 313.178 452.622L328.893 452.622C328.353 454.647 327.096 456.189 325.12 457.25 323.145 458.312 320.539 458.843 317.3 458.843L313.178 458.843C312.859 458.843 312.583 458.96 312.35 459.194 312.116 459.429 312 459.707 312 460.027L312 464.73C312 465.051 312.11 465.322 312.331 465.544 317.042 470.579 323.151 477.625 330.659 486.685 330.88 486.981 331.187 487.129 331.579 487.129L338.756 487.129C339.272 487.129 339.628 486.907 339.823 486.462 340.069 486.018 340.021 485.598 339.676 485.203 332.513 476.367 326.881 469.752 322.784 465.359 326.955 464.865 330.341 463.508 332.942 461.286 335.542 459.065 337.125 456.177 337.689 452.623L343.872 452.623C344.215 452.623 344.498 452.512 344.718 452.29 344.939 452.068 345.05 451.784 345.05 451.439L345.05 447.662C345.05 447.316 344.939 447.033 344.718 446.81Z" fill="#FFFFFF" fill-rule="evenodd"/><path d="M389 286.5C389 256.4 412.953 232 442.5 232 472.047 232 496 256.4 496 286.5 496 316.6 472.047 341 442.5 341 412.953 341 389 316.6 389 286.5Z" fill="#D9D9D9" fill-rule="evenodd"/><g clip-path="url(#clip28)"><g clip-path="url(#clip29)"><g clip-path="url(#clip30)"><path d="M51.1767 41.5706 31.0327 22.3689C34.0154 15.93 33.0866 9.41092 28.4889 4.81322 25.3844 1.70976 21.2584 0 16.8695 0 12.0205 0 7.43537 2.13599 4.28937 5.85995-1.19364 12.353-0.739381 22.1312 5.32451 28.1206 8.283 31.0434 12.1993 32.6526 16.3514 32.6526 18.0361 32.6526 19.7265 32.3955 21.3841 31.8871L23.6988 34.2473C23.8805 34.4319 24.1289 34.5373 24.3889 34.5373L28.2811 34.5373 28.2811 37.4368C28.2811 37.9713 28.7141 38.4033 29.2476 38.4033L32.1471 38.4033 32.1471 41.3029C32.1471 41.8373 32.5801 42.2694 33.1136 42.2694L36.9797 42.2694 36.9797 46.1354C36.9797 46.6699 37.4127 47.1019 37.9462 47.1019L39.8792 47.1019 39.8792 48.8185C39.8792 49.7511 39.9594 50.2711 40.694 51.0057 41.2313 51.545 41.9456 51.8726 42.7787 51.9345L50.5108 51.9345C51.0443 51.9345 51.4773 51.5025 51.4773 50.968L51.4773 42.2694C51.4764 42.0055 51.3681 41.7523 51.1767 41.5706ZM16.8704 16.4307C15.7754 17.5267 14.3189 18.1298 12.7695 18.1298 11.2202 18.1298 9.76466 17.5267 8.6696 16.4307 7.57454 15.3356 6.97144 13.8791 6.97144 12.3307 6.97144 10.7824 7.57358 9.32489 8.6696 8.22984 9.76466 7.13478 11.2212 6.53168 12.7705 6.53168 14.3198 6.53168 15.7754 7.13478 16.8714 8.22984 17.9665 9.32586 18.5696 10.7824 18.5696 12.3307 18.5696 13.8791 17.9655 15.3356 16.8704 16.4307Z" fill="#695934" transform="matrix(0.99302 0.117946 -0.120317 1.01298 432.88 256.034)"/></g></g></g><path d="M426.87 246.754C435.412 244.484 444.3 249.643 446.722 258.276 449.143 266.909 444.181 275.747 435.639 278.016 427.096 280.285 418.208 275.126 415.787 266.494 413.475 258.25 417.895 249.74 425.887 247.049" stroke="#695934" stroke-width="2" stroke-miterlimit="8" fill="none" fill-rule="evenodd"/><g clip-path="url(#clip31)"><g clip-path="url(#clip32)"><g clip-path="url(#clip33)"><path d="M51.1767 41.5706 31.0327 22.3689C34.0154 15.93 33.0866 9.41092 28.4889 4.81322 25.3844 1.70976 21.2584 0 16.8695 0 12.0205 0 7.43537 2.13599 4.28937 5.85995-1.19364 12.353-0.739381 22.1312 5.32451 28.1206 8.283 31.0434 12.1993 32.6526 16.3514 32.6526 18.0361 32.6526 19.7265 32.3955 21.3841 31.8871L23.6988 34.2473C23.8805 34.4319 24.1289 34.5373 24.3889 34.5373L28.2811 34.5373 28.2811 37.4368C28.2811 37.9713 28.7141 38.4033 29.2476 38.4033L32.1471 38.4033 32.1471 41.3029C32.1471 41.8373 32.5801 42.2694 33.1136 42.2694L36.9797 42.2694 36.9797 46.1354C36.9797 46.6699 37.4127 47.1019 37.9462 47.1019L39.8792 47.1019 39.8792 48.8185C39.8792 49.7511 39.9594 50.2711 40.694 51.0057 41.2313 51.545 41.9456 51.8726 42.7787 51.9345L50.5108 51.9345C51.0443 51.9345 51.4773 51.5025 51.4773 50.968L51.4773 42.2694C51.4764 42.0055 51.3681 41.7523 51.1767 41.5706ZM16.8704 16.4307C15.7754 17.5267 14.3189 18.1298 12.7695 18.1298 11.2202 18.1298 9.76466 17.5267 8.6696 16.4307 7.57454 15.3356 6.97144 13.8791 6.97144 12.3307 6.97144 10.7824 7.57358 9.32489 8.6696 8.22984 9.76466 7.13478 11.2212 6.53168 12.7705 6.53168 14.3198 6.53168 15.7754 7.13478 16.8714 8.22984 17.9665 9.32586 18.5696 10.7824 18.5696 12.3307 18.5696 13.8791 17.9655 15.3356 16.8704 16.4307Z" fill="#695934" transform="matrix(0.866025 0.5 -0.510051 0.883434 423.528 259.644)"/></g></g></g></g></svg>